<?xml version="1.0" encoding="utf-8"?>
<!-- Generator: Adobe Illustrator 23.0.4, SVG Export Plug-In . SVG Version: 6.00 Build 0)  -->
<svg version="1.1" id="Capa_1" xmlns="http://www.w3.org/2000/svg" xmlns:xlink="http://www.w3.org/1999/xlink" x="0px" y="0px"
	 viewBox="0 0 344.63 118.26" style="enable-background:new 0 0 344.63 118.26;" xml:space="preserve">
<style type="text/css">
	.st0{enable-background:new    ;}
	.st1{fill:#E72264;}
	.st2{fill:#5BC5F2;}
</style>
<g>
	<g class="st0">
		<path class="st1" d="M154.64,32.23c0.78,0,1.37,0.03,1.76,0.08c0.39,0.05,0.83,0.21,1.32,0.48c0.49,0.27,0.84,0.73,1.04,1.38
			c0.2,0.65,0.31,1.51,0.31,2.6c0,1.09-0.1,1.95-0.31,2.6c-0.2,0.65-0.56,1.09-1.07,1.35s-0.96,0.41-1.35,0.46
			c-0.39,0.05-0.99,0.08-1.81,0.08h-15.58v5.14h10.03c0.81,0,1.42,0.03,1.81,0.08c0.39,0.05,0.84,0.21,1.35,0.48
			c0.88,0.51,1.32,1.85,1.32,4.02c0,2.38-0.65,3.79-1.94,4.23c-0.54,0.17-1.41,0.25-2.6,0.25h-9.98v9.62c0,0.82-0.03,1.41-0.08,1.78
			c-0.05,0.37-0.21,0.82-0.48,1.32c-0.48,0.92-1.8,1.38-3.97,1.38c-2.38,0-3.77-0.64-4.18-1.94c-0.2-0.54-0.31-1.41-0.31-2.6V36.71
			c0-1.73,0.32-2.91,0.97-3.54c0.64-0.63,1.87-0.94,3.67-0.94H154.64z"/>
		<path class="st1" d="M177.56,43.03c0.64,0.2,1.18,0.55,1.6,1.04s0.64,1.28,0.64,2.37c0,1.09-0.32,2.28-0.97,3.56
			c-0.64,1.29-1.58,1.94-2.8,1.94c-0.61,0-1.2-0.14-1.76-0.41c-0.56-0.27-1.3-0.41-2.22-0.41s-1.77,0.32-2.57,0.97
			c-0.8,0.65-1.2,1.43-1.2,2.34v10.69c0,0.78-0.03,1.37-0.08,1.76c-0.05,0.39-0.21,0.84-0.48,1.35c-0.51,0.88-1.83,1.32-3.97,1.32
			c-1.63,0-2.8-0.29-3.51-0.87c-0.54-0.48-0.85-1.21-0.92-2.19c0-0.34,0-0.83,0-1.48V47.15c0-0.78,0.03-1.37,0.08-1.76
			c0.05-0.39,0.19-0.82,0.43-1.3c0.48-0.92,1.8-1.38,3.97-1.38c2.04,0,3.31,0.39,3.82,1.17c0.37,0.54,0.56,1.1,0.56,1.68
			c0.17-0.24,0.42-0.53,0.74-0.87c0.32-0.34,1.01-0.8,2.06-1.38c1.05-0.58,1.98-0.87,2.78-0.87c0.8,0,1.47,0.04,2.01,0.13
			C176.32,42.68,176.91,42.82,177.56,43.03z"/>
		<path class="st1" d="M198.49,45.57c0.2-1.9,1.54-2.85,4.02-2.85c1.32,0,2.31,0.1,2.95,0.31c0.64,0.2,1.09,0.56,1.35,1.07
			c0.25,0.51,0.41,0.96,0.46,1.35c0.05,0.39,0.08,0.98,0.08,1.76v17.82c0,0.78-0.03,1.37-0.08,1.76c-0.05,0.39-0.2,0.84-0.43,1.35
			c-0.48,0.88-1.64,1.32-3.49,1.32s-3.09-0.23-3.72-0.69c-0.63-0.46-0.99-1.13-1.09-2.01c-1.26,1.8-3.35,2.7-6.29,2.7
			c-2.94,0-5.66-1.34-8.17-4.02c-2.51-2.68-3.77-5.8-3.77-9.34c0-3.55,1.26-6.65,3.79-9.32c2.53-2.66,5.3-4,8.33-4
			c1.15,0,2.21,0.2,3.16,0.61c0.95,0.41,1.61,0.79,1.99,1.15C197.94,44.88,198.25,45.23,198.49,45.57z M189.22,56.16
			c0,1.12,0.44,2.13,1.32,3.03c0.88,0.9,1.95,1.35,3.21,1.35s2.3-0.46,3.13-1.38c0.83-0.92,1.25-1.93,1.25-3.03
			c0-1.1-0.4-2.13-1.2-3.08c-0.8-0.95-1.87-1.43-3.21-1.43c-1.34,0-2.43,0.48-3.26,1.43C189.63,54.01,189.22,55.04,189.22,56.16z"/>
		<path class="st1" d="M227,51.73l-3.31-0.2v7.03c0,0.92,0.14,1.58,0.43,1.99c0.29,0.41,0.83,0.61,1.63,0.61
			c0.8,0,1.41,0.03,1.83,0.08c0.42,0.05,0.87,0.21,1.35,0.48c0.78,0.44,1.17,1.58,1.17,3.41c0,2.14-0.48,3.45-1.43,3.92
			c-0.51,0.24-0.96,0.38-1.35,0.43s-0.96,0.08-1.71,0.08c-3.53,0-6.21-0.8-8.04-2.39c-1.83-1.59-2.75-4.29-2.75-8.1v-7.54
			c-0.65,0.1-1.34,0.15-2.09,0.15c-0.75,0-1.37-0.29-1.86-0.87c-0.49-0.58-0.74-1.56-0.74-2.95c0-1.39,0.08-2.4,0.25-3.03
			s0.41-1.08,0.71-1.35c0.54-0.44,1.22-0.66,2.04-0.66l1.68,0.2v-5.25c0-0.78,0.03-1.36,0.08-1.73c0.05-0.37,0.21-0.78,0.48-1.22
			c0.44-0.85,1.75-1.27,3.92-1.27c2.31,0,3.68,0.63,4.12,1.88c0.17,0.54,0.25,1.41,0.25,2.6v4.99c1.49-0.14,2.62-0.2,3.39-0.2
			c0.76,0,1.34,0.03,1.73,0.08s0.84,0.21,1.35,0.48c0.88,0.44,1.32,1.75,1.32,3.92c0,2.14-0.46,3.45-1.38,3.92
			c-0.51,0.24-0.96,0.38-1.35,0.43S227.78,51.73,227,51.73z"/>
		<path class="st1" d="M259.14,52.93c0,2.09-0.52,3.63-1.55,4.63c-1.04,1-2.18,1.5-3.44,1.5h-12.07c0,0.95,0.56,1.75,1.68,2.39
			c1.12,0.65,2.24,0.97,3.36,0.97c1.97,0,3.51-0.2,4.63-0.61l0.56-0.2c0.81-0.37,1.49-0.56,2.04-0.56c1.09,0,2.02,0.76,2.8,2.29
			c0.44,0.92,0.66,1.7,0.66,2.34c0,3.02-3.62,4.53-10.85,4.53c-2.51,0-4.74-0.43-6.7-1.3c-1.95-0.87-3.47-2.01-4.56-3.44
			c-2.14-2.75-3.21-5.82-3.21-9.22c0-4.28,1.38-7.7,4.15-10.26c2.77-2.56,6.22-3.84,10.36-3.84c4.72,0,8.18,1.66,10.39,4.99
			C258.56,48.92,259.14,50.84,259.14,52.93z M248.39,54.43c1.29,0,1.94-0.54,1.94-1.63c0-0.78-0.3-1.41-0.89-1.88
			c-0.59-0.47-1.44-0.71-2.55-0.71c-1.1,0-2.2,0.45-3.29,1.35s-1.63,1.86-1.63,2.88H248.39z"/>
		<path class="st1" d="M271.82,60.54c1.12,0,1.95,0.29,2.5,0.87c0.54,0.58,0.81,1.77,0.81,3.56c0,1.8-0.29,3-0.87,3.59
			c-0.58,0.59-1.41,0.89-2.5,0.89c-3.43,0-5.84-0.82-7.23-2.47c-1.39-1.65-2.09-4.39-2.09-8.23V34.47c0-0.78,0.03-1.37,0.08-1.76
			c0.05-0.39,0.2-0.84,0.43-1.35c0.48-0.88,1.8-1.32,3.97-1.32c2.07,0,3.36,0.48,3.87,1.43c0.27,0.48,0.43,0.91,0.48,1.3
			c0.05,0.39,0.08,0.98,0.08,1.76v24.44C271.36,60.02,271.51,60.54,271.82,60.54z M285.51,60.24c0.27,0.2,0.97,0.3,2.09,0.3
			c1.12,0,2.05,0.29,2.8,0.87c0.75,0.58,1.12,1.77,1.12,3.56c0,1.8-0.4,3-1.2,3.59c-0.8,0.59-1.91,0.89-3.33,0.89
			c-7.2,0-10.8-3.56-10.8-10.69l-0.05-24.29c0-0.78,0.03-1.37,0.08-1.76c0.05-0.39,0.21-0.84,0.48-1.35
			c0.51-0.88,1.83-1.32,3.97-1.32c2.07,0,3.36,0.48,3.87,1.43c0.37,0.75,0.56,1.77,0.56,3.05v24.44
			C285.11,59.61,285.24,60.03,285.51,60.24z"/>
		<path class="st1" d="M302.7,37.76c-0.25,0.49-0.71,0.84-1.35,1.04c-0.65,0.2-1.5,0.3-2.57,0.3s-1.93-0.1-2.57-0.3
			c-0.64-0.2-1.09-0.56-1.35-1.07c-0.25-0.51-0.41-0.96-0.46-1.35s-0.08-0.98-0.08-1.76s0.03-1.37,0.08-1.76s0.2-0.82,0.43-1.3
			c0.48-0.92,1.8-1.38,3.97-1.38c2.14,0,3.43,0.46,3.87,1.38c0.27,0.51,0.43,0.96,0.48,1.35c0.05,0.39,0.08,0.98,0.08,1.76
			c0,0.78-0.03,1.37-0.08,1.76C303.11,36.82,302.95,37.26,302.7,37.76z M294.32,47.2c0-0.78,0.03-1.37,0.08-1.76
			c0.05-0.39,0.2-0.84,0.43-1.35c0.48-0.88,1.8-1.32,3.97-1.32c1.63,0,2.78,0.29,3.46,0.87c0.58,0.48,0.88,1.21,0.92,2.19
			c0.03,0.34,0.05,0.83,0.05,1.48v17.82c0,0.78-0.03,1.37-0.08,1.76c-0.05,0.39-0.21,0.84-0.48,1.35c-0.44,0.88-1.75,1.32-3.92,1.32
			c-2.14,0-3.45-0.46-3.92-1.38c-0.24-0.51-0.38-0.95-0.43-1.32c-0.05-0.37-0.08-0.97-0.08-1.78V47.2z"/>
		<path class="st1" d="M324.72,45.57c0.2-1.9,1.54-2.85,4.02-2.85c1.32,0,2.31,0.1,2.95,0.31c0.64,0.2,1.09,0.56,1.35,1.07
			c0.25,0.51,0.41,0.96,0.46,1.35c0.05,0.39,0.08,0.98,0.08,1.76v17.82c0,0.78-0.03,1.37-0.08,1.76c-0.05,0.39-0.2,0.84-0.43,1.35
			c-0.48,0.88-1.64,1.32-3.49,1.32c-1.85,0-3.09-0.23-3.72-0.69c-0.63-0.46-0.99-1.13-1.09-2.01c-1.26,1.8-3.35,2.7-6.29,2.7
			s-5.66-1.34-8.17-4.02c-2.51-2.68-3.77-5.8-3.77-9.34c0-3.55,1.26-6.65,3.79-9.32c2.53-2.66,5.3-4,8.33-4
			c1.15,0,2.21,0.2,3.16,0.61c0.95,0.41,1.61,0.79,1.99,1.15S324.48,45.23,324.72,45.57z M315.46,56.16c0,1.12,0.44,2.13,1.32,3.03
			c0.88,0.9,1.95,1.35,3.21,1.35c1.25,0,2.3-0.46,3.13-1.38c0.83-0.92,1.25-1.93,1.25-3.03c0-1.1-0.4-2.13-1.2-3.08
			c-0.8-0.95-1.87-1.43-3.21-1.43c-1.34,0-2.43,0.48-3.26,1.43C315.87,54.01,315.46,55.04,315.46,56.16z"/>
	</g>
	<g class="st0">
		<path class="st2" d="M130.26,90.55V78.96h6.99v1.39h-5.37v3.5h4.77v1.37h-4.77v5.34H130.26z"/>
		<path class="st2" d="M141.89,81.67c0.13,0,0.29,0.01,0.46,0.02c0.17,0.02,0.34,0.04,0.51,0.07c0.17,0.03,0.32,0.06,0.46,0.08
			c0.14,0.03,0.24,0.05,0.31,0.08l-0.27,1.35c-0.12-0.04-0.33-0.1-0.61-0.16c-0.28-0.06-0.65-0.09-1.1-0.09
			c-0.29,0-0.58,0.03-0.86,0.09c-0.28,0.06-0.47,0.1-0.56,0.12v7.31h-1.56v-8.33c0.37-0.13,0.83-0.26,1.37-0.38
			C140.6,81.73,141.21,81.67,141.89,81.67z"/>
		<path class="st2" d="M147.95,81.63c0.62,0,1.15,0.08,1.58,0.24c0.43,0.16,0.77,0.39,1.04,0.69c0.26,0.3,0.45,0.65,0.56,1.05
			c0.11,0.41,0.17,0.86,0.17,1.35v5.44c-0.13,0.02-0.32,0.05-0.56,0.09c-0.24,0.04-0.51,0.08-0.81,0.11
			c-0.3,0.03-0.63,0.06-0.98,0.09c-0.35,0.03-0.7,0.04-1.05,0.04c-0.49,0-0.94-0.05-1.36-0.15s-0.77-0.26-1.07-0.48
			c-0.3-0.22-0.54-0.5-0.7-0.86c-0.17-0.36-0.25-0.79-0.25-1.29c0-0.48,0.1-0.89,0.29-1.24c0.19-0.35,0.46-0.62,0.79-0.84
			c0.33-0.21,0.72-0.37,1.17-0.47c0.45-0.1,0.91-0.15,1.41-0.15c0.16,0,0.32,0.01,0.49,0.03s0.33,0.04,0.48,0.07
			c0.15,0.03,0.28,0.05,0.39,0.08c0.11,0.02,0.19,0.04,0.23,0.05v-0.44c0-0.26-0.03-0.51-0.08-0.76s-0.16-0.47-0.3-0.67
			s-0.34-0.35-0.59-0.47s-0.58-0.18-0.98-0.18c-0.51,0-0.96,0.04-1.35,0.11c-0.38,0.07-0.67,0.15-0.86,0.23l-0.18-1.29
			c0.2-0.09,0.54-0.18,1-0.26C146.89,81.68,147.4,81.63,147.95,81.63z M148.08,89.43c0.37,0,0.69-0.01,0.98-0.03
			c0.28-0.02,0.52-0.05,0.71-0.09v-2.59c-0.11-0.06-0.29-0.1-0.54-0.14s-0.56-0.06-0.91-0.06c-0.23,0-0.48,0.02-0.74,0.05
			c-0.26,0.03-0.5,0.1-0.72,0.21c-0.22,0.11-0.4,0.25-0.54,0.43c-0.15,0.18-0.22,0.43-0.22,0.73c0,0.56,0.18,0.95,0.54,1.16
			C146.98,89.32,147.47,89.43,148.08,89.43z"/>
		<path class="st2" d="M155.33,81.85h3.3v1.31h-3.3v4.01c0,0.44,0.03,0.79,0.1,1.08c0.07,0.29,0.17,0.51,0.3,0.67
			c0.13,0.16,0.3,0.28,0.5,0.34c0.2,0.07,0.44,0.1,0.7,0.1c0.47,0,0.84-0.05,1.13-0.16c0.28-0.11,0.48-0.18,0.59-0.23l0.3,1.29
			c-0.16,0.08-0.43,0.18-0.82,0.29c-0.39,0.12-0.84,0.17-1.34,0.17c-0.59,0-1.08-0.08-1.46-0.23s-0.69-0.38-0.93-0.68
			c-0.23-0.3-0.4-0.67-0.49-1.11c-0.1-0.44-0.14-0.95-0.14-1.53v-7.76l1.56-0.27V81.85z"/>
		<path class="st2" d="M159.94,86.22c0-0.77,0.11-1.44,0.33-2.02c0.22-0.57,0.52-1.05,0.89-1.43c0.37-0.38,0.79-0.66,1.27-0.85
			c0.48-0.19,0.97-0.28,1.47-0.28c1.17,0,2.07,0.37,2.69,1.1c0.62,0.73,0.94,1.84,0.94,3.34c0,0.07,0,0.15,0,0.26
			c0,0.11-0.01,0.2-0.02,0.29h-5.96c0.07,0.9,0.33,1.59,0.79,2.06c0.46,0.47,1.17,0.7,2.14,0.7c0.55,0,1.01-0.05,1.38-0.14
			s0.66-0.19,0.85-0.28l0.22,1.31c-0.19,0.1-0.52,0.21-1,0.32s-1.01,0.17-1.61,0.17c-0.76,0-1.41-0.12-1.97-0.34
			c-0.55-0.23-1.01-0.54-1.36-0.95c-0.36-0.4-0.62-0.88-0.79-1.43C160.03,87.48,159.94,86.88,159.94,86.22z M165.92,85.37
			c0.01-0.7-0.16-1.28-0.53-1.73c-0.36-0.45-0.86-0.68-1.5-0.68c-0.36,0-0.67,0.07-0.95,0.21c-0.27,0.14-0.5,0.32-0.69,0.54
			c-0.19,0.22-0.34,0.48-0.44,0.77s-0.18,0.59-0.21,0.89H165.92z"/>
		<path class="st2" d="M172.99,81.67c0.13,0,0.29,0.01,0.46,0.02c0.17,0.02,0.34,0.04,0.51,0.07c0.17,0.03,0.32,0.06,0.46,0.08
			c0.14,0.03,0.24,0.05,0.31,0.08l-0.27,1.35c-0.12-0.04-0.33-0.1-0.61-0.16c-0.29-0.06-0.65-0.09-1.1-0.09
			c-0.29,0-0.58,0.03-0.86,0.09c-0.28,0.06-0.47,0.1-0.56,0.12v7.31h-1.56v-8.33c0.37-0.13,0.83-0.26,1.37-0.38
			C171.7,81.73,172.31,81.67,172.99,81.67z"/>
		<path class="st2" d="M176.24,82.1c0.36-0.09,0.83-0.18,1.42-0.28c0.59-0.1,1.27-0.15,2.04-0.15c0.69,0,1.27,0.1,1.72,0.29
			c0.46,0.2,0.82,0.47,1.1,0.82s0.47,0.77,0.58,1.26c0.11,0.49,0.17,1.03,0.17,1.62v4.89h-1.56V86c0-0.54-0.04-0.99-0.11-1.37
			c-0.07-0.38-0.19-0.69-0.36-0.92s-0.39-0.4-0.67-0.51c-0.28-0.11-0.62-0.16-1.04-0.16c-0.17,0-0.34,0.01-0.52,0.02
			s-0.35,0.02-0.51,0.04c-0.16,0.02-0.31,0.04-0.44,0.06s-0.22,0.04-0.28,0.05v7.34h-1.56V82.1z"/>
		<path class="st2" d="M186.61,80.28c-0.28,0-0.52-0.09-0.71-0.28c-0.2-0.18-0.29-0.43-0.29-0.74s0.1-0.56,0.29-0.75
			c0.2-0.18,0.43-0.28,0.71-0.28c0.28,0,0.52,0.09,0.71,0.28c0.19,0.18,0.29,0.43,0.29,0.75s-0.1,0.56-0.29,0.74
			C187.13,80.19,186.89,80.28,186.61,80.28z M187.4,90.55h-1.56v-8.7h1.56V90.55z"/>
		<path class="st2" d="M195.7,77.84l1.56-0.27V90.3c-0.36,0.1-0.81,0.2-1.37,0.3c-0.56,0.1-1.2,0.15-1.92,0.15
			c-0.67,0-1.27-0.11-1.81-0.32c-0.54-0.21-0.99-0.51-1.37-0.9c-0.38-0.39-0.67-0.87-0.88-1.43c-0.21-0.56-0.31-1.2-0.31-1.9
			c0-0.67,0.09-1.28,0.26-1.84s0.43-1.04,0.76-1.44c0.33-0.4,0.74-0.71,1.23-0.94c0.49-0.22,1.04-0.33,1.66-0.33
			c0.5,0,0.95,0.07,1.33,0.2s0.67,0.26,0.86,0.38V77.84z M195.7,83.69c-0.19-0.16-0.46-0.31-0.82-0.45
			c-0.36-0.14-0.75-0.22-1.17-0.22c-0.45,0-0.83,0.08-1.15,0.24c-0.32,0.16-0.58,0.38-0.78,0.67c-0.2,0.28-0.35,0.62-0.44,1.01
			c-0.09,0.39-0.13,0.81-0.13,1.25c0,1.01,0.25,1.8,0.75,2.35c0.5,0.55,1.17,0.83,2.01,0.83c0.42,0,0.78-0.02,1.06-0.06
			s0.5-0.08,0.66-0.13V83.69z"/>
		<path class="st2" d="M202.74,81.63c0.62,0,1.15,0.08,1.58,0.24c0.43,0.16,0.77,0.39,1.04,0.69c0.26,0.3,0.45,0.65,0.56,1.05
			c0.11,0.41,0.17,0.86,0.17,1.35v5.44c-0.13,0.02-0.32,0.05-0.56,0.09s-0.51,0.08-0.81,0.11c-0.3,0.03-0.63,0.06-0.98,0.09
			c-0.35,0.03-0.7,0.04-1.05,0.04c-0.49,0-0.94-0.05-1.36-0.15c-0.41-0.1-0.77-0.26-1.07-0.48s-0.54-0.5-0.7-0.86
			c-0.17-0.36-0.25-0.79-0.25-1.29c0-0.48,0.1-0.89,0.29-1.24s0.46-0.62,0.79-0.84s0.72-0.37,1.17-0.47
			c0.45-0.1,0.92-0.15,1.41-0.15c0.16,0,0.32,0.01,0.49,0.03c0.17,0.02,0.33,0.04,0.48,0.07c0.15,0.03,0.28,0.05,0.39,0.08
			s0.19,0.04,0.23,0.05v-0.44c0-0.26-0.03-0.51-0.08-0.76s-0.16-0.47-0.3-0.67c-0.15-0.2-0.34-0.35-0.59-0.47s-0.58-0.18-0.98-0.18
			c-0.51,0-0.96,0.04-1.35,0.11c-0.38,0.07-0.67,0.15-0.86,0.23l-0.18-1.29c0.2-0.09,0.54-0.18,1-0.26
			C201.69,81.68,202.19,81.63,202.74,81.63z M202.87,89.43c0.37,0,0.69-0.01,0.98-0.03c0.28-0.02,0.52-0.05,0.71-0.09v-2.59
			c-0.11-0.06-0.29-0.1-0.54-0.14s-0.55-0.06-0.91-0.06c-0.23,0-0.48,0.02-0.74,0.05c-0.26,0.03-0.5,0.1-0.72,0.21
			c-0.22,0.11-0.4,0.25-0.54,0.43c-0.15,0.18-0.22,0.43-0.22,0.73c0,0.56,0.18,0.95,0.54,1.16
			C201.77,89.32,202.26,89.43,202.87,89.43z"/>
		<path class="st2" d="M214.28,77.84l1.56-0.27V90.3c-0.36,0.1-0.81,0.2-1.37,0.3c-0.56,0.1-1.2,0.15-1.92,0.15
			c-0.67,0-1.27-0.11-1.81-0.32s-0.99-0.51-1.37-0.9c-0.38-0.39-0.67-0.87-0.88-1.43c-0.21-0.56-0.31-1.2-0.31-1.9
			c0-0.67,0.09-1.28,0.26-1.84c0.17-0.56,0.43-1.04,0.76-1.44s0.74-0.71,1.23-0.94c0.49-0.22,1.04-0.33,1.67-0.33
			c0.5,0,0.95,0.07,1.33,0.2s0.67,0.26,0.86,0.38V77.84z M214.28,83.69c-0.19-0.16-0.46-0.31-0.82-0.45
			c-0.36-0.14-0.75-0.22-1.17-0.22c-0.45,0-0.83,0.08-1.15,0.24c-0.32,0.16-0.58,0.38-0.78,0.67c-0.2,0.28-0.35,0.62-0.43,1.01
			c-0.09,0.39-0.13,0.81-0.13,1.25c0,1.01,0.25,1.8,0.75,2.35c0.5,0.55,1.17,0.83,2.01,0.83c0.42,0,0.78-0.02,1.06-0.06
			c0.28-0.04,0.5-0.08,0.66-0.13V83.69z"/>
		<path class="st2" d="M230.04,86.22c0,0.66-0.09,1.27-0.26,1.82s-0.43,1.04-0.76,1.44c-0.33,0.4-0.74,0.71-1.23,0.94
			s-1.04,0.33-1.67,0.33c-0.5,0-0.95-0.07-1.33-0.2s-0.67-0.26-0.86-0.38v3.48h-1.56V82.12c0.37-0.09,0.83-0.19,1.38-0.29
			c0.55-0.11,1.19-0.16,1.92-0.16c0.67,0,1.27,0.11,1.81,0.32s0.99,0.51,1.37,0.9c0.38,0.39,0.67,0.87,0.88,1.43
			C229.94,84.88,230.04,85.52,230.04,86.22z M228.42,86.22c0-1.01-0.25-1.8-0.75-2.34c-0.5-0.55-1.17-0.82-2.01-0.82
			c-0.47,0-0.83,0.02-1.1,0.05c-0.26,0.03-0.47,0.07-0.63,0.12v5.49c0.19,0.16,0.46,0.31,0.82,0.45c0.36,0.15,0.75,0.22,1.17,0.22
			c0.45,0,0.83-0.08,1.15-0.24c0.32-0.16,0.58-0.38,0.78-0.67s0.35-0.62,0.44-1C228.38,87.08,228.42,86.67,228.42,86.22z"/>
		<path class="st2" d="M235.05,81.63c0.62,0,1.15,0.08,1.58,0.24c0.43,0.16,0.78,0.39,1.04,0.69c0.26,0.3,0.45,0.65,0.56,1.05
			s0.17,0.86,0.17,1.35v5.44c-0.13,0.02-0.32,0.05-0.56,0.09c-0.24,0.04-0.51,0.08-0.81,0.11c-0.3,0.03-0.63,0.06-0.98,0.09
			c-0.35,0.03-0.7,0.04-1.04,0.04c-0.49,0-0.94-0.05-1.36-0.15c-0.41-0.1-0.77-0.26-1.07-0.48c-0.3-0.22-0.54-0.5-0.7-0.86
			c-0.17-0.36-0.25-0.79-0.25-1.29c0-0.48,0.1-0.89,0.29-1.24c0.19-0.35,0.46-0.62,0.79-0.84c0.33-0.21,0.72-0.37,1.17-0.47
			c0.45-0.1,0.91-0.15,1.41-0.15c0.16,0,0.32,0.01,0.49,0.03c0.17,0.02,0.33,0.04,0.48,0.07c0.15,0.03,0.28,0.05,0.39,0.08
			c0.11,0.02,0.19,0.04,0.23,0.05v-0.44c0-0.26-0.03-0.51-0.08-0.76s-0.16-0.47-0.3-0.67c-0.14-0.2-0.34-0.35-0.59-0.47
			s-0.58-0.18-0.98-0.18c-0.51,0-0.96,0.04-1.35,0.11c-0.38,0.07-0.67,0.15-0.86,0.23l-0.18-1.29c0.2-0.09,0.54-0.18,1-0.26
			S234.5,81.63,235.05,81.63z M235.18,89.43c0.37,0,0.69-0.01,0.98-0.03c0.29-0.02,0.52-0.05,0.71-0.09v-2.59
			c-0.11-0.06-0.29-0.1-0.54-0.14s-0.56-0.06-0.91-0.06c-0.23,0-0.48,0.02-0.74,0.05c-0.26,0.03-0.5,0.1-0.72,0.21
			c-0.22,0.11-0.4,0.25-0.54,0.43c-0.14,0.18-0.22,0.43-0.22,0.73c0,0.56,0.18,0.95,0.54,1.16
			C234.08,89.32,234.57,89.43,235.18,89.43z"/>
		<path class="st2" d="M244.18,81.67c0.13,0,0.29,0.01,0.46,0.02c0.17,0.02,0.34,0.04,0.51,0.07c0.17,0.03,0.32,0.06,0.46,0.08
			c0.14,0.03,0.24,0.05,0.31,0.08l-0.27,1.35c-0.12-0.04-0.33-0.1-0.61-0.16s-0.65-0.09-1.1-0.09c-0.29,0-0.58,0.03-0.86,0.09
			c-0.29,0.06-0.47,0.1-0.56,0.12v7.31h-1.56v-8.33c0.37-0.13,0.83-0.26,1.37-0.38S243.5,81.67,244.18,81.67z"/>
		<path class="st2" d="M250.24,81.63c0.62,0,1.15,0.08,1.58,0.24c0.43,0.16,0.77,0.39,1.04,0.69c0.26,0.3,0.45,0.65,0.56,1.05
			c0.11,0.41,0.17,0.86,0.17,1.35v5.44c-0.13,0.02-0.32,0.05-0.56,0.09s-0.51,0.08-0.81,0.11c-0.3,0.03-0.63,0.06-0.98,0.09
			c-0.35,0.03-0.7,0.04-1.05,0.04c-0.49,0-0.94-0.05-1.36-0.15c-0.41-0.1-0.77-0.26-1.07-0.48s-0.54-0.5-0.7-0.86
			c-0.17-0.36-0.25-0.79-0.25-1.29c0-0.48,0.1-0.89,0.29-1.24s0.46-0.62,0.79-0.84s0.72-0.37,1.17-0.47
			c0.45-0.1,0.92-0.15,1.41-0.15c0.16,0,0.32,0.01,0.49,0.03c0.17,0.02,0.33,0.04,0.48,0.07c0.15,0.03,0.28,0.05,0.39,0.08
			s0.19,0.04,0.23,0.05v-0.44c0-0.26-0.03-0.51-0.08-0.76s-0.16-0.47-0.3-0.67c-0.15-0.2-0.34-0.35-0.59-0.47s-0.58-0.18-0.98-0.18
			c-0.51,0-0.96,0.04-1.35,0.11c-0.38,0.07-0.67,0.15-0.86,0.23l-0.18-1.29c0.2-0.09,0.54-0.18,1-0.26
			C249.18,81.68,249.69,81.63,250.24,81.63z M250.37,89.43c0.37,0,0.69-0.01,0.98-0.03c0.28-0.02,0.52-0.05,0.71-0.09v-2.59
			c-0.11-0.06-0.29-0.1-0.54-0.14s-0.55-0.06-0.91-0.06c-0.23,0-0.48,0.02-0.74,0.05c-0.26,0.03-0.5,0.1-0.72,0.21
			c-0.22,0.11-0.4,0.25-0.54,0.43c-0.15,0.18-0.22,0.43-0.22,0.73c0,0.56,0.18,0.95,0.54,1.16
			C249.27,89.32,249.76,89.43,250.37,89.43z"/>
		<path class="st2" d="M269.64,84.75c0,1-0.16,1.88-0.47,2.62c-0.31,0.74-0.75,1.36-1.32,1.84c-0.57,0.49-1.25,0.85-2.04,1.09
			c-0.79,0.24-1.66,0.36-2.61,0.36c-0.47,0-0.98-0.02-1.55-0.06c-0.56-0.04-1.07-0.11-1.53-0.23V79.13
			c0.46-0.11,0.97-0.19,1.53-0.23c0.56-0.04,1.08-0.06,1.55-0.06c0.95,0,1.82,0.12,2.61,0.36s1.47,0.6,2.04,1.09
			c0.57,0.49,1.01,1.1,1.32,1.84C269.49,82.87,269.64,83.74,269.64,84.75z M263.34,89.23c1.54,0,2.69-0.39,3.45-1.18
			c0.76-0.79,1.14-1.89,1.14-3.3c0-1.42-0.38-2.52-1.14-3.3c-0.76-0.79-1.91-1.18-3.45-1.18c-0.46,0-0.81,0.01-1.06,0.02
			s-0.43,0.02-0.53,0.03v8.87c0.1,0.01,0.28,0.02,0.53,0.03C262.53,89.22,262.88,89.23,263.34,89.23z"/>
		<path class="st2" d="M271.47,86.22c0-0.77,0.11-1.44,0.33-2.02c0.22-0.57,0.52-1.05,0.89-1.43c0.37-0.38,0.79-0.66,1.27-0.85
			s0.97-0.28,1.47-0.28c1.17,0,2.07,0.37,2.69,1.1s0.94,1.84,0.94,3.34c0,0.07,0,0.15,0,0.26c0,0.11-0.01,0.2-0.02,0.29h-5.96
			c0.07,0.9,0.33,1.59,0.79,2.06c0.46,0.47,1.17,0.7,2.14,0.7c0.55,0,1.01-0.05,1.38-0.14c0.37-0.09,0.66-0.19,0.84-0.28l0.22,1.31
			c-0.19,0.1-0.52,0.21-1,0.32c-0.47,0.11-1.01,0.17-1.61,0.17c-0.76,0-1.41-0.12-1.97-0.34s-1.01-0.54-1.36-0.95
			c-0.36-0.4-0.62-0.88-0.79-1.43C271.55,87.48,271.47,86.88,271.47,86.22z M277.44,85.37c0.01-0.7-0.17-1.28-0.53-1.73
			c-0.36-0.45-0.86-0.68-1.5-0.68c-0.36,0-0.67,0.07-0.95,0.21c-0.27,0.14-0.5,0.32-0.69,0.54c-0.19,0.22-0.34,0.48-0.44,0.77
			c-0.11,0.29-0.18,0.59-0.21,0.89H277.44z"/>
		<path class="st2" d="M283.33,89.43c0.64,0,1.11-0.08,1.41-0.25s0.46-0.43,0.46-0.8c0-0.38-0.15-0.68-0.45-0.9
			c-0.3-0.22-0.8-0.47-1.49-0.75c-0.33-0.13-0.66-0.27-0.96-0.41c-0.31-0.14-0.57-0.3-0.79-0.49c-0.22-0.19-0.4-0.42-0.54-0.69
			s-0.2-0.6-0.2-0.99c0-0.77,0.28-1.38,0.85-1.83c0.57-0.45,1.34-0.68,2.33-0.68c0.25,0,0.49,0.01,0.74,0.04
			c0.25,0.03,0.47,0.06,0.69,0.1s0.4,0.08,0.56,0.13c0.16,0.04,0.29,0.08,0.38,0.12l-0.28,1.34c-0.17-0.09-0.43-0.18-0.79-0.28
			c-0.36-0.09-0.79-0.14-1.29-0.14c-0.43,0-0.81,0.09-1.14,0.26c-0.32,0.17-0.49,0.44-0.49,0.81c0,0.19,0.04,0.36,0.11,0.5
			c0.07,0.15,0.18,0.28,0.33,0.39c0.15,0.12,0.34,0.23,0.56,0.33c0.22,0.1,0.49,0.21,0.8,0.32c0.41,0.16,0.78,0.31,1.1,0.46
			c0.32,0.15,0.6,0.33,0.83,0.53c0.23,0.2,0.4,0.44,0.53,0.73c0.12,0.28,0.18,0.63,0.18,1.04c0,0.8-0.3,1.41-0.9,1.82
			c-0.6,0.41-1.45,0.62-2.55,0.62c-0.77,0-1.37-0.06-1.81-0.19c-0.43-0.13-0.73-0.23-0.89-0.29l0.28-1.34
			c0.18,0.07,0.46,0.17,0.85,0.3C282.16,89.36,282.68,89.43,283.33,89.43z"/>
		<path class="st2" d="M291.58,81.63c0.62,0,1.15,0.08,1.58,0.24c0.43,0.16,0.77,0.39,1.04,0.69c0.26,0.3,0.45,0.65,0.56,1.05
			c0.11,0.41,0.17,0.86,0.17,1.35v5.44c-0.13,0.02-0.32,0.05-0.56,0.09s-0.51,0.08-0.81,0.11c-0.3,0.03-0.63,0.06-0.98,0.09
			c-0.35,0.03-0.7,0.04-1.05,0.04c-0.49,0-0.94-0.05-1.36-0.15c-0.41-0.1-0.77-0.26-1.07-0.48s-0.54-0.5-0.7-0.86
			c-0.17-0.36-0.25-0.79-0.25-1.29c0-0.48,0.1-0.89,0.29-1.24s0.46-0.62,0.79-0.84s0.72-0.37,1.17-0.47
			c0.45-0.1,0.92-0.15,1.41-0.15c0.16,0,0.32,0.01,0.49,0.03c0.17,0.02,0.33,0.04,0.48,0.07c0.15,0.03,0.28,0.05,0.39,0.08
			s0.19,0.04,0.23,0.05v-0.44c0-0.26-0.03-0.51-0.08-0.76s-0.16-0.47-0.3-0.67c-0.15-0.2-0.34-0.35-0.59-0.47s-0.58-0.18-0.98-0.18
			c-0.51,0-0.96,0.04-1.35,0.11c-0.38,0.07-0.67,0.15-0.86,0.23l-0.18-1.29c0.2-0.09,0.54-0.18,1-0.26
			C290.52,81.68,291.03,81.63,291.58,81.63z M291.71,89.43c0.37,0,0.69-0.01,0.98-0.03c0.28-0.02,0.52-0.05,0.71-0.09v-2.59
			c-0.11-0.06-0.29-0.1-0.54-0.14s-0.55-0.06-0.91-0.06c-0.23,0-0.48,0.02-0.74,0.05c-0.26,0.03-0.5,0.1-0.72,0.21
			c-0.22,0.11-0.4,0.25-0.54,0.43c-0.15,0.18-0.22,0.43-0.22,0.73c0,0.56,0.18,0.95,0.54,1.16
			C290.61,89.32,291.1,89.43,291.71,89.43z"/>
		<path class="st2" d="M299.52,89.43c0.64,0,1.11-0.08,1.41-0.25s0.46-0.43,0.46-0.8c0-0.38-0.15-0.68-0.45-0.9
			c-0.3-0.22-0.8-0.47-1.49-0.75c-0.33-0.13-0.66-0.27-0.96-0.41c-0.31-0.14-0.57-0.3-0.79-0.49c-0.22-0.19-0.4-0.42-0.54-0.69
			s-0.2-0.6-0.2-0.99c0-0.77,0.28-1.38,0.85-1.83c0.57-0.45,1.34-0.68,2.33-0.68c0.25,0,0.49,0.01,0.74,0.04
			c0.25,0.03,0.47,0.06,0.69,0.1s0.4,0.08,0.56,0.13c0.16,0.04,0.29,0.08,0.38,0.12l-0.28,1.34c-0.17-0.09-0.43-0.18-0.79-0.28
			c-0.36-0.09-0.79-0.14-1.29-0.14c-0.43,0-0.81,0.09-1.14,0.26c-0.32,0.17-0.49,0.44-0.49,0.81c0,0.19,0.04,0.36,0.11,0.5
			c0.07,0.15,0.18,0.28,0.33,0.39c0.15,0.12,0.34,0.23,0.56,0.33c0.22,0.1,0.49,0.21,0.8,0.32c0.41,0.16,0.78,0.31,1.1,0.46
			c0.32,0.15,0.6,0.33,0.83,0.53c0.23,0.2,0.4,0.44,0.53,0.73c0.12,0.28,0.18,0.63,0.18,1.04c0,0.8-0.3,1.41-0.9,1.82
			c-0.6,0.41-1.45,0.62-2.55,0.62c-0.77,0-1.37-0.06-1.81-0.19c-0.43-0.13-0.73-0.23-0.89-0.29l0.28-1.34
			c0.18,0.07,0.46,0.17,0.85,0.3C298.36,89.36,298.88,89.43,299.52,89.43z"/>
		<path class="st2" d="M306.42,81.85h3.3v1.31h-3.3v4.01c0,0.44,0.03,0.79,0.1,1.08c0.07,0.29,0.17,0.51,0.3,0.67
			c0.13,0.16,0.3,0.28,0.5,0.34c0.2,0.07,0.44,0.1,0.7,0.1c0.47,0,0.84-0.05,1.13-0.16c0.29-0.11,0.48-0.18,0.59-0.23l0.3,1.29
			c-0.16,0.08-0.43,0.18-0.82,0.29c-0.39,0.12-0.84,0.17-1.34,0.17c-0.59,0-1.08-0.08-1.46-0.23s-0.69-0.38-0.93-0.68
			c-0.23-0.3-0.4-0.67-0.49-1.11c-0.1-0.44-0.14-0.95-0.14-1.53v-7.76l1.56-0.27V81.85z"/>
		<path class="st2" d="M314.9,81.67c0.13,0,0.29,0.01,0.46,0.02c0.17,0.02,0.34,0.04,0.51,0.07c0.17,0.03,0.32,0.06,0.46,0.08
			c0.14,0.03,0.24,0.05,0.31,0.08l-0.27,1.35c-0.12-0.04-0.33-0.1-0.61-0.16s-0.65-0.09-1.1-0.09c-0.29,0-0.58,0.03-0.86,0.09
			c-0.29,0.06-0.47,0.1-0.56,0.12v7.31h-1.56v-8.33c0.37-0.13,0.83-0.26,1.37-0.38S314.22,81.67,314.9,81.67z"/>
		<path class="st2" d="M317.66,86.22c0-0.77,0.11-1.44,0.33-2.02c0.22-0.57,0.52-1.05,0.89-1.43c0.37-0.38,0.79-0.66,1.27-0.85
			c0.48-0.19,0.97-0.28,1.47-0.28c1.17,0,2.07,0.37,2.69,1.1c0.62,0.73,0.94,1.84,0.94,3.34c0,0.07,0,0.15,0,0.26
			c0,0.11-0.01,0.2-0.02,0.29h-5.96c0.07,0.9,0.33,1.59,0.79,2.06s1.17,0.7,2.14,0.7c0.55,0,1.01-0.05,1.38-0.14
			c0.37-0.09,0.66-0.19,0.85-0.28l0.22,1.31c-0.19,0.1-0.52,0.21-1,0.32c-0.47,0.11-1.01,0.17-1.61,0.17
			c-0.76,0-1.41-0.12-1.97-0.34c-0.55-0.23-1.01-0.54-1.36-0.95c-0.36-0.4-0.62-0.88-0.79-1.43
			C317.75,87.48,317.66,86.88,317.66,86.22z M323.63,85.37c0.01-0.7-0.16-1.28-0.53-1.73c-0.36-0.45-0.86-0.68-1.5-0.68
			c-0.36,0-0.67,0.07-0.95,0.21s-0.5,0.32-0.69,0.54c-0.19,0.22-0.34,0.48-0.44,0.77c-0.11,0.29-0.18,0.59-0.21,0.89H323.63z"/>
		<path class="st2" d="M329.52,89.43c0.64,0,1.11-0.08,1.41-0.25s0.46-0.43,0.46-0.8c0-0.38-0.15-0.68-0.45-0.9
			c-0.3-0.22-0.8-0.47-1.49-0.75c-0.34-0.13-0.66-0.27-0.96-0.41s-0.57-0.3-0.79-0.49c-0.22-0.19-0.4-0.42-0.54-0.69
			s-0.2-0.6-0.2-0.99c0-0.77,0.28-1.38,0.85-1.83c0.57-0.45,1.34-0.68,2.33-0.68c0.25,0,0.49,0.01,0.74,0.04
			c0.24,0.03,0.47,0.06,0.69,0.1c0.21,0.04,0.4,0.08,0.56,0.13c0.16,0.04,0.29,0.08,0.38,0.12l-0.29,1.34
			c-0.17-0.09-0.43-0.18-0.79-0.28c-0.36-0.09-0.79-0.14-1.29-0.14c-0.44,0-0.81,0.09-1.14,0.26c-0.32,0.17-0.48,0.44-0.48,0.81
			c0,0.19,0.04,0.36,0.11,0.5c0.07,0.15,0.18,0.28,0.33,0.39s0.34,0.23,0.56,0.33s0.49,0.21,0.8,0.32c0.41,0.16,0.78,0.31,1.11,0.46
			c0.32,0.15,0.6,0.33,0.83,0.53c0.23,0.2,0.4,0.44,0.53,0.73c0.12,0.28,0.19,0.63,0.19,1.04c0,0.8-0.3,1.41-0.9,1.82
			c-0.6,0.41-1.45,0.62-2.55,0.62c-0.77,0-1.37-0.06-1.81-0.19c-0.44-0.13-0.73-0.23-0.89-0.29l0.28-1.34
			c0.18,0.07,0.46,0.17,0.85,0.3C328.36,89.36,328.88,89.43,329.52,89.43z"/>
	</g>
	<g>
		<path class="st1" d="M23.96,71.91c-0.21,0-0.42-0.07-0.59-0.21c-5.18-4.2-12-12.31-13.05-14.18C10.2,57.3-0.96,34.66,16.53,18.38
			c15.87-14.77,35.1-7.54,37.98-5.59c1.56,1.05,9.06,6.73,9.14,6.78c0.41,0.31,0.49,0.9,0.18,1.32l-2.08,2.76
			c-0.31,0.41-0.9,0.5-1.31,0.18c-3.49-2.64-7.89-5.94-8.9-6.62c-0.1-0.05-16.73-8.54-31.36,5.08C5.91,35.57,14.9,54.74,15,54.93
			c0.64,1.13,6.96,8.74,11.75,12.63c0.4,0.33,0.47,0.92,0.14,1.32l-2.18,2.68C24.5,71.79,24.23,71.91,23.96,71.91z"/>
		<path class="st1" d="M81.87,94.35c-3.33,0-5.99-1.49-6.72-1.95c-0.21-0.13-0.36-0.34-0.42-0.59c-0.06-0.24-0.01-0.5,0.12-0.71
			l1.83-2.93c0.27-0.44,0.85-0.58,1.29-0.3c0.18,0.11,4.31,2.59,6.69-0.03c2.39-2.65-0.18-6.19-0.29-6.34
			c-0.29-0.39-0.23-0.93,0.12-1.25l2.54-2.32c0.15-0.14,0.35-0.23,0.55-0.24c0.18-0.02,0.38,0.03,0.55,0.12
			c0.66,0.34,4.03,1.94,6.07-0.39c2.29-2.62-0.64-5.72-0.76-5.85c-0.35-0.36-0.35-0.94,0-1.31l2.41-2.47
			c0.36-0.37,0.94-0.38,1.32-0.03c0.1,0.07,3.43,2.71,6.06-0.2c2.62-2.91,0.32-6.3-0.1-6.68c-0.73-0.66-18.69-16.38-27.32-23.93
			l-3.39-2.96L62.17,44.94c-3.35,3.44-7.05,5.18-11.02,5.18c-6.45-0.02-11.08-4.72-11.28-4.93l-1.14-1.18
			c-0.35-0.36-0.35-0.93-0.01-1.29l21.34-22.9c0.36-0.3,6.55-5.23,15.25-7.94c11.52-3.59,22-1.52,30.31,5.98
			c16.85,15.21,10.45,32.97,7.81,36.89c-0.67,0.99-2.9,3.91-4.37,5.83c1.41,3.73,0.72,7.62-1.89,10.52
			c-2.24,2.48-4.74,3.14-6.76,3.14c-0.02,0-0.04,0-0.06,0c0.28,2.44-0.45,4.72-2.15,6.66c-1.62,1.85-3.79,2.91-6.26,3.06
			c-0.34,0.02-0.68,0.02-1.03,0c0.28,2.18-0.04,4.93-2.31,7.44C86.87,93.33,84.54,94.35,81.87,94.35z M72.1,26.9
			c0.22,0,0.44,0.08,0.62,0.23l1.26,1.1c1.18,1.03,26.61,23.29,31.81,27.86c1.67-2.19,2.86-3.78,3.23-4.32
			c0.07-0.12,8.93-15.6-6.96-29.95c-7.02-6.33-15.55-7.97-25.35-4.85c-7.12,2.26-12.51,6.38-13.1,6.84L45.72,43.04
			c1.3,0.82,3.25,1.74,5.43,1.74c2.47,0,4.88-1.19,7.16-3.53l13.1-14.05C71.59,27,71.84,26.9,72.1,26.9z"/>
		<path class="st1" d="M94.24,71.96c-0.21,0-0.43-0.07-0.6-0.22L78.08,58.68c-0.19-0.16-0.31-0.39-0.33-0.64
			c-0.02-0.25,0.06-0.49,0.22-0.69l2.22-2.65c0.34-0.4,0.93-0.45,1.32-0.12l15.55,13.06c0.19,0.16,0.31,0.39,0.33,0.64
			c0.02,0.25-0.06,0.49-0.22,0.69l-2.22,2.65C94.77,71.85,94.51,71.96,94.24,71.96z"/>
		<path class="st1" d="M85.82,82.45c-0.21,0-0.43-0.07-0.6-0.22L69.66,69.17c-0.19-0.16-0.31-0.39-0.33-0.64
			c-0.02-0.25,0.06-0.49,0.22-0.69l2.22-2.65c0.33-0.4,0.93-0.45,1.32-0.12l15.55,13.07c0.19,0.16,0.31,0.39,0.33,0.64
			c0.02,0.25-0.06,0.49-0.22,0.69l-2.22,2.65C86.35,82.34,86.08,82.45,85.82,82.45z"/>
		<path class="st1" d="M29.88,82.51c-1.96,0-3.87-0.75-5.38-2.12c-1.7-1.53-2.76-3.74-2.93-6.08c-0.18-2.56,0.73-5.09,2.57-7.12
			l9.26-10.25c2.42-2.68,5.65-3.82,8.88-3.12c3.1,0.66,5.71,2.97,6.65,5.88c0.89,2.76,0.2,5.69-1.91,8.02
			c-0.36,0.4-1.62,1.82-3.15,3.55l-0.53,0.6c-2.29,2.58-4.99,5.63-6.24,7.02C34.38,81.89,31.67,82.51,29.88,82.51z M40.42,58.96
			c-1.09,0-2.16,0.54-3.08,1.56l-9.25,10.25c-1.84,2.04-1.38,4.44-0.02,5.67c1.39,1.26,3.28,0.84,5.06-1.12
			c1.23-1.36,3.87-4.34,6.13-6.88l0.61-0.69c1.55-1.75,2.83-3.19,3.19-3.59c0.83-0.92,1.09-1.86,0.79-2.8
			c-0.35-1.1-1.46-2.05-2.7-2.31C40.9,58.99,40.66,58.96,40.42,58.96z"/>
		<path class="st1" d="M40.13,91.77c-1.96,0-3.88-0.75-5.39-2.12c-1.69-1.53-2.76-3.74-2.93-6.07c-0.18-2.56,0.73-5.09,2.57-7.12
			l9.25-10.25c2.42-2.68,5.65-3.82,8.88-3.12c3.1,0.66,5.71,2.97,6.65,5.88c0.89,2.76,0.2,5.68-1.91,8.01
			c-0.27,0.3-1.06,1.18-2.09,2.35l-1.29,1.45c-2.35,2.65-5.25,5.92-6.56,7.37C44.62,91.14,41.92,91.77,40.13,91.77z M46.9,69.15
			l0.7,0.63l-9.26,10.25c-1.84,2.03-1.38,4.44-0.02,5.66c0.41,0.37,1.1,0.8,2.05,0.71c0.97-0.09,2.01-0.72,3.01-1.83
			c1.19-1.32,3.71-4.16,5.92-6.65l0.82-0.93c1.55-1.75,2.83-3.19,3.19-3.59c0.83-0.92,1.09-1.86,0.79-2.8
			c-0.35-1.1-1.46-2.05-2.7-2.31c-1.33-0.29-2.68,0.24-3.8,1.48L46.9,69.15z"/>
		<path class="st1" d="M50.36,101.01c-0.56,0-1.11-0.06-1.63-0.17c-2.89-0.62-5.28-2.85-6.24-5.83c-1.05-3.24-0.26-6.63,2.15-9.3
			l9.25-10.25c2.42-2.68,5.65-3.81,8.88-3.12c3.1,0.67,5.71,2.98,6.65,5.89c0.89,2.76,0.2,5.68-1.91,8.01
			c-0.34,0.37-1.51,1.69-2.95,3.32l-0.17,0.19c-2.39,2.7-5.45,6.15-6.81,7.65C54.89,100.38,52.17,101.01,50.36,101.01z M60.93,77.47
			c-1.09,0-2.16,0.54-3.08,1.56L48.6,89.28c-1.1,1.22-1.48,2.71-1.03,4.08c0.38,1.17,1.25,2.03,2.28,2.25
			c1.16,0.25,2.51-0.39,3.78-1.8c1.36-1.5,4.43-4.97,6.81-7.66l0.79-0.89c1.15-1.29,2.03-2.3,2.32-2.62c0.83-0.92,1.1-1.86,0.79-2.8
			c-0.35-1.1-1.46-2.05-2.69-2.31C61.41,77.5,61.17,77.47,60.93,77.47z"/>
		<path class="st1" d="M60.61,110.26c-0.55,0-1.11-0.06-1.63-0.17c-2.89-0.62-5.28-2.85-6.24-5.83c-1.05-3.24-0.26-6.63,2.15-9.3
			l9.26-10.25c2.42-2.68,5.66-3.81,8.88-3.12c3.1,0.66,5.71,2.97,6.65,5.88c0.89,2.76,0.2,5.68-1.91,8.01
			c-0.36,0.4-1.66,1.86-3.22,3.63c-2.42,2.73-5.38,6.07-6.7,7.54C65.14,109.63,62.42,110.26,60.61,110.26z M71.17,86.73
			c-1.09,0-2.16,0.54-3.08,1.56l-9.26,10.25c-1.1,1.22-1.48,2.71-1.03,4.08c0.38,1.17,1.25,2.03,2.28,2.25
			c1.16,0.25,2.51-0.39,3.78-1.8c1.32-1.46,4.27-4.78,6.62-7.44c1.61-1.81,2.94-3.32,3.31-3.73c0.83-0.91,1.09-1.86,0.79-2.8
			c-0.35-1.1-1.46-2.05-2.69-2.31C71.66,86.75,71.42,86.73,71.17,86.73z"/>
	</g>
</g>
</svg>
